<svg xmlns="http://www.w3.org/2000/svg" width="500" height="796" viewBox="0 0 283 451" shape-rendering="geometricPrecision" text-rendering="geometricPrecision" image-rendering="optimizeQuality" fill-rule="evenodd" clip-rule="evenodd"><defs><style>.fil1{fill:#8bc34a}.fil0{fill:#fff}</style></defs><g id="Layer_x0020_1"><path class="fil0" d="M131 161c5-1 9-5 14-2l87 27c0 2 0 5-2 5-29 9-57 18-86 27-2 1-4 1-5 0-17-5-34-10-50-16-6 6-8 15-8 23 2 2 4 4 5 7 1 4-1 8-5 11 2 10 3 21 4 31 1 2 1 5-1 5-5 1-11 1-16 0-2 1-3-2-3-4 2-11 3-22 5-32-7-5-6-15 0-18 1-9 3-18 8-26-9-3-17-5-26-8-2 0-2-3-2-5 27-9 54-17 81-25zm-41 77c1-8 2-16 2-25 15 5 29 10 44 15 3 1 7 1 10 0 15-5 30-10 44-15 1 9 2 18 2 27 0 4-4 8-8 10-7 4-15 6-23 8-16 2-33 2-49-2-6-2-14-5-19-10-2-2-3-5-3-8z"/><path class="fil1" d="M0 0h283v451L142 346 0 451V0zm131 161c-27 8-54 16-81 25 0 2 0 5 2 5 9 3 17 5 26 8-5 8-7 17-8 26-6 3-7 13 0 18-2 10-3 21-5 32 0 2 1 5 3 4 5 1 11 1 16 0 2 0 2-3 1-5-1-10-2-21-4-31 4-3 6-7 5-11-1-3-3-5-5-7 0-8 2-17 8-23 16 6 33 11 50 16 1 1 3 1 5 0 29-9 57-18 86-27 2 0 2-3 2-5l-87-27c-5-3-9 1-14 2zm-41 77c0 3 1 6 3 8 5 5 13 8 19 10 16 4 33 4 49 2 8-2 16-4 23-8 4-2 8-6 8-10 0-9-1-18-2-27-14 5-29 10-44 15-3 1-7 1-10 0-15-5-29-10-44-15 0 9-1 17-2 25z"/></g></svg>