<svg xmlns="http://www.w3.org/2000/svg" width="500" height="833" viewBox="0 0 274 457" shape-rendering="geometricPrecision" text-rendering="geometricPrecision" image-rendering="optimizeQuality" fill-rule="evenodd" clip-rule="evenodd"><defs><style>.fil1{fill:#44c8f5}.fil0{fill:#fff}</style></defs><g id="Layer_x0020_1"><path class="fil0" d="M87 184c19-1 37 0 55-1 5 0 10 1 14 3 6 4 11 10 12 17 1 5 0 11 0 16 11-10 22-21 32-31 3-3 10-1 9 3v88c1 5-6 7-9 4-10-11-21-22-32-32 0 7 1 14-1 21-4 8-12 15-21 15H88c-12 0-23-11-23-23v-58c0-12 11-22 22-22z"/><path class="fil1" d="M0 0h274v457c-44-35-89-71-133-106-47 35-94 71-141 106V0zm87 184c-11 0-22 10-22 22v58c0 12 11 23 23 23h58c9 0 17-7 21-15 2-7 1-14 1-21 11 10 22 21 32 32 3 3 10 1 9-4v-88c1-4-6-6-9-3-10 10-21 21-32 31 0-5 1-11 0-16-1-7-6-13-12-17-4-2-9-3-14-3-18 1-36 0-55 1z"/></g></svg>